<!-- Generated by IcoMoon.io -->
<svg version="1.1" xmlns="http://www.w3.org/2000/svg" width="40" height="40" viewBox="0 0 15 15">
<title>a-icon-playmini</title>
<path fill="#d8d8d8" d="M10.731 7.216l-4.222-3.034c-0.131-0.102-0.481-0.102-0.509 0.282v6.068c0.031 0.384 0.388 0.391 0.509 0.282l4.222-3.034c0.109-0.069 0.259-0.351 0-0.565zM6.653 9.885v-4.774l3.316 2.387-3.316 2.387z"></path>
<path fill="#d8d8d8" d="M7.5 0c-4.136 0-7.5 3.364-7.5 7.5s3.364 7.5 7.5 7.5c4.136 0 7.5-3.364 7.5-7.5s-3.364-7.5-7.5-7.5zM7.5 14.36c-3.784 0-6.86-3.077-6.86-6.86s3.077-6.86 6.86-6.86c3.784 0 6.86 3.077 6.86 6.86s-3.077 6.86-6.86 6.86z"></path>
</svg>
