<!-- Generated by IcoMoon.io -->
<svg version="1.1" xmlns="http://www.w3.org/2000/svg" width="40" height="40" viewBox="0 0 15 15">
<title>a-icon-melody</title>
<path fill="#d8d8d8" d="M14.345 0.068c-0.059-0.052-0.136-0.075-0.215-0.066l-8.434 1.094c-0.135 0.018-0.237 0.133-0.237 0.27v9.713c-0.497-0.599-1.286-0.988-2.176-0.988-1.5 0-2.721 1.101-2.721 2.455s1.22 2.455 2.721 2.455c1.5 0 2.721-1.101 2.721-2.455 0-0.063-0.005-0.125-0.011-0.187 0.004-0.018 0.011-0.034 0.011-0.052v-7.91l7.89-1.024v4.979c-0.497-0.598-1.286-0.988-2.176-0.988-1.5 0-2.721 1.101-2.721 2.455s1.22 2.455 2.721 2.455c1.487 0 2.697-1.082 2.719-2.418 0-0.004 0.002-0.007 0.002-0.010v-9.572c0-0.079-0.034-0.153-0.093-0.205zM3.283 14.455c-1.2 0-2.176-0.857-2.176-1.909s0.976-1.909 2.176-1.909c1.2 0 2.176 0.857 2.176 1.909s-0.976 1.909-2.176 1.909zM11.717 11.727c-1.2 0-2.176-0.857-2.176-1.909s0.976-1.909 2.176-1.909c1.2 0 2.176 0.857 2.176 1.909s-0.976 1.909-2.176 1.909zM6.004 3.846v-2.24l7.89-1.023v2.239l-7.89 1.024z"></path>
</svg>
