<!-- Generated by IcoMoon.io -->
<svg version="1.1" xmlns="http://www.w3.org/2000/svg" width="15" height="15" viewBox="0 0 15 15">
<title>a-icon-picture</title>
<path fill="#d8d8d8" d="M13.707 0h-12.414c-0.714 0-1.293 0.579-1.293 1.293v12.414c0 0.714 0.579 1.293 1.293 1.293h12.414c0.714 0 1.293-0.579 1.293-1.293v-12.414c0-0.714-0.579-1.293-1.293-1.293zM0.517 1.293c0-0.429 0.347-0.776 0.776-0.776h12.414c0.429 0 0.776 0.347 0.776 0.776v8.11l-3.698-4.159c-0.005-0.005-0.010-0.005-0.016-0.010s-0.016-0.010-0.021-0.016c-0.005-0.005-0.016-0.010-0.021-0.016s-0.016-0.010-0.021-0.010c-0.010-0.005-0.016-0.005-0.026-0.010-0.005 0-0.016-0.005-0.021-0.005-0.010 0-0.016-0.005-0.026-0.005s-0.016 0-0.026 0c-0.010 0-0.016 0-0.026 0s-0.016 0-0.026 0c-0.010 0-0.016 0.005-0.026 0.005s-0.016 0.005-0.021 0.005-0.016 0.005-0.026 0.010c-0.005 0.005-0.016 0.005-0.021 0.010s-0.016 0.010-0.021 0.016c-0.005 0.005-0.010 0.005-0.016 0.010l-0.010 0.010-4.96 4.981-0.372-0.336c-0.103-0.093-0.259-0.088-0.357 0.010l-4.112 4.179c-0.062-0.114-0.098-0.238-0.098-0.378v-12.403zM1.003 14.426l3.921-3.983 4.49 4.040h-8.121c-0.103 0-0.202-0.021-0.29-0.057zM13.707 14.483h-3.522l-4.345-3.91 4.748-4.764 3.89 4.376v3.522c0.005 0.424-0.347 0.776-0.771 0.776z"></path>
<path fill="#d8d8d8" d="M6 4.688c0 0.725-0.588 1.313-1.313 1.313s-1.313-0.588-1.313-1.313c0-0.725 0.588-1.313 1.313-1.313s1.313 0.588 1.313 1.313z"></path>
<path fill="#d8d8d8" d="M1.632 6c0.074 0 0.132-0.058 0.132-0.132v-4.103h4.103c0.074 0 0.132-0.058 0.132-0.132s-0.058-0.132-0.132-0.132h-4.235c-0.074 0-0.132 0.058-0.132 0.132v4.235c0 0.074 0.058 0.132 0.132 0.132z"></path>
</svg>
