<svg aria-hidden="true" style="position: absolute; width: 0; height: 0; overflow: hidden;" version="1.1" xmlns="http://www.w3.org/2000/svg" xmlns:xlink="http://www.w3.org/1999/xlink">
<defs>
<symbol id="icon-Group" viewBox="0 0 16 15">
<path fill="#deee23" style="fill: var(--color1, #deee23)" d="M8.077 12.115l-4.747 2.496 0.907-5.286-3.841-3.744 5.308-0.771 2.374-4.81 2.374 4.81 5.308 0.771-3.841 3.744 0.907 5.286z"></path>
<path fill="#d8d8d8" style="fill: var(--color2, #d8d8d8)" d="M8.077 12.115v-12.115l2.374 4.81 5.308 0.771-3.841 3.744 0.907 5.286z"></path>
</symbol>
<symbol id="icon-a-icon-accurate" viewBox="0 0 15 15">
<path fill="#4d4949" style="fill: var(--color3, #4d4949)" d="M13.154 10.411v-3.84c0-0.124-0.099-0.225-0.222-0.225s-0.222 0.101-0.222 0.225v3.615h-8.732l-0.264-0.154c-0.012-0.007-0.025-0.013-0.038-0.018v-1.853c0-0.124-0.099-0.225-0.222-0.225s-0.222 0.101-0.222 0.225v2.25c0 0.124 0.099 0.225 0.222 0.225h6.089l-0.125 0.22c-0.056 0.098-0.029 0.227 0.061 0.294 0.105 0.079 0.259 0.046 0.324-0.069l0.178-0.312c0.024-0.042 0.033-0.088 0.029-0.133h2.923c0.123 0 0.222-0.101 0.222-0.225v0z"></path>
<path fill="#4d4949" style="fill: var(--color3, #4d4949)" d="M4.261 1.297c-0.118-0.056-0.269-0.023-0.338 0.075l-0.198 0.283c-0.068 0.098-0.028 0.223 0.090 0.279 0.039 0.019 0.081 0.027 0.123 0.027 0.086 0 0.169-0.037 0.214-0.102l0.198-0.283c0.068-0.098 0.028-0.223-0.090-0.279z"></path>
<path fill="#4d4949" style="fill: var(--color3, #4d4949)" d="M8.001 1.928c0.032 0.022 0.067 0.033 0.102 0.033 0.071 0 0.139-0.044 0.177-0.124 0.056-0.118 0.023-0.269-0.075-0.338l-0.283-0.198c-0.098-0.068-0.223-0.028-0.279 0.091s-0.023 0.269 0.075 0.338l0.283 0.198z"></path>
<path fill="#4d4949" style="fill: var(--color3, #4d4949)" d="M10.154 9.448l-0.198 0.283c-0.068 0.098-0.028 0.223 0.090 0.279 0.039 0.019 0.081 0.027 0.123 0.027 0.085 0 0.168-0.037 0.214-0.102l0.198-0.283c0.068-0.098 0.028-0.223-0.090-0.279s-0.269-0.023-0.338 0.075v0z"></path>
<path fill="#4d4949" style="fill: var(--color3, #4d4949)" d="M8.924 2.621c0.032 0.022 0.067 0.033 0.102 0.033 0.071 0 0.139-0.044 0.177-0.124 0.056-0.118 0.023-0.269-0.075-0.338l-0.283-0.198c-0.098-0.068-0.223-0.028-0.279 0.091s-0.023 0.269 0.075 0.338l0.283 0.198z"></path>
<path fill="#4d4949" style="fill: var(--color3, #4d4949)" d="M10.282 2.885l-0.283-0.198c-0.098-0.068-0.223-0.028-0.279 0.091s-0.023 0.269 0.075 0.338l0.283 0.198c0.032 0.022 0.067 0.033 0.102 0.033 0.071 0 0.139-0.044 0.177-0.124 0.056-0.118 0.023-0.269-0.075-0.338v0z"></path>
<path fill="#4d4949" style="fill: var(--color3, #4d4949)" d="M6.076 11.225c-0.098-0.068-0.223-0.028-0.279 0.091s-0.023 0.269 0.075 0.338l0.283 0.198c0.032 0.022 0.067 0.033 0.102 0.033 0.071 0 0.139-0.044 0.177-0.124 0.056-0.118 0.023-0.269-0.075-0.338l-0.283-0.198z"></path>
<path fill="#4d4949" style="fill: var(--color3, #4d4949)" d="M9 11.756l-0.198 0.284c-0.062 0.089-0.033 0.206 0.067 0.267 0.117 0.071 0.288 0.042 0.361-0.062l0.198-0.284c0.068-0.098 0.028-0.223-0.091-0.28s-0.27-0.023-0.338 0.075z"></path>
<path fill="#4d4949" style="fill: var(--color3, #4d4949)" d="M12.692 4.833l-0.198 0.283c-0.068 0.098-0.028 0.223 0.090 0.279 0.039 0.019 0.082 0.027 0.123 0.027 0.085 0 0.168-0.037 0.214-0.102l0.198-0.283c0.068-0.098 0.028-0.223-0.090-0.279s-0.27-0.023-0.338 0.075z"></path>
<path fill="#4d4949" style="fill: var(--color3, #4d4949)" d="M4.922 10.533c-0.098-0.068-0.223-0.028-0.279 0.091s-0.023 0.269 0.075 0.338l0.283 0.198c0.032 0.022 0.067 0.033 0.102 0.033 0.071 0 0.139-0.044 0.177-0.124 0.056-0.118 0.023-0.269-0.075-0.338l-0.283-0.198z"></path>
<path fill="#4d4949" style="fill: var(--color3, #4d4949)" d="M11.436 3.577l-0.283-0.198c-0.098-0.068-0.223-0.028-0.279 0.090s-0.023 0.269 0.075 0.338l0.283 0.198c0.032 0.022 0.067 0.033 0.102 0.033 0.071 0 0.139-0.044 0.177-0.124 0.056-0.118 0.023-0.269-0.075-0.338z"></path>
<path fill="#4d4949" style="fill: var(--color3, #4d4949)" d="M6.999 11.918c-0.098-0.068-0.223-0.028-0.279 0.090s-0.023 0.269 0.075 0.338l0.283 0.198c0.032 0.022 0.067 0.033 0.102 0.033 0.071 0 0.139-0.044 0.177-0.124 0.056-0.118 0.023-0.269-0.075-0.338l-0.283-0.198z"></path>
<path fill="#4d4949" style="fill: var(--color3, #4d4949)" d="M8.248 12.699l-0.117-0.088c-0.091-0.068-0.207-0.028-0.259 0.090s-0.021 0.269 0.069 0.338l0.263 0.198c0.030 0.022 0.062 0.033 0.095 0.033 0.066 0 0.129-0.044 0.164-0.124l0.051-0.114c0.052-0.118 0.021-0.269-0.069-0.338-0.063-0.047-0.138-0.042-0.196 0.005v0z"></path>
<path fill="#4d4949" style="fill: var(--color3, #4d4949)" d="M0.59 8.192l-0.283-0.198c-0.098-0.068-0.223-0.028-0.279 0.091s-0.023 0.269 0.075 0.338l0.283 0.198c0.032 0.022 0.067 0.033 0.102 0.033 0.071 0 0.139-0.044 0.177-0.124 0.056-0.118 0.023-0.269-0.075-0.338v0z"></path>
<path fill="#4d4949" style="fill: var(--color3, #4d4949)" d="M1.030 7.066c-0.118-0.056-0.269-0.023-0.338 0.075l-0.198 0.284c-0.068 0.098-0.028 0.223 0.090 0.28 0.117 0.056 0.27 0.022 0.338-0.075l0.198-0.284c0.068-0.098 0.028-0.223-0.090-0.28z"></path>
<path fill="#4d4949" style="fill: var(--color3, #4d4949)" d="M1.97 5.396c0.117 0.056 0.27 0.022 0.338-0.075l0.198-0.284c0.068-0.098 0.028-0.223-0.090-0.28s-0.269-0.023-0.338 0.075l-0.198 0.284c-0.068 0.098-0.028 0.223 0.090 0.28z"></path>
<path fill="#4d4949" style="fill: var(--color3, #4d4949)" d="M2.614 9.379c-0.098-0.068-0.223-0.028-0.279 0.090s-0.023 0.269 0.075 0.338l0.283 0.198c0.032 0.022 0.067 0.033 0.102 0.033 0.071 0 0.139-0.044 0.177-0.124 0.056-0.118 0.023-0.269-0.075-0.338l-0.283-0.198z"></path>
<path fill="#4d4949" style="fill: var(--color3, #4d4949)" d="M1.277 6.55c0.117 0.056 0.27 0.022 0.338-0.075l0.198-0.283c0.068-0.098 0.028-0.223-0.090-0.28s-0.269-0.023-0.338 0.075l-0.198 0.283c-0.068 0.098-0.028 0.223 0.090 0.28z"></path>
<path fill="#4d4949" style="fill: var(--color3, #4d4949)" d="M1.642 9.346c0.071 0 0.139-0.044 0.177-0.124 0.056-0.118 0.023-0.269-0.075-0.338l-0.283-0.198c-0.098-0.068-0.223-0.028-0.279 0.090s-0.023 0.269 0.075 0.338l0.283 0.198c0.032 0.022 0.067 0.033 0.102 0.033v0z"></path>
<path fill="#4d4949" style="fill: var(--color3, #4d4949)" d="M2.431 4.242c0.117 0.056 0.27 0.022 0.338-0.075l0.198-0.284c0.068-0.098 0.028-0.223-0.091-0.28s-0.269-0.023-0.338 0.075l-0.198 0.284c-0.068 0.098-0.028 0.223 0.090 0.28z"></path>
<path fill="#4d4949" style="fill: var(--color3, #4d4949)" d="M12.124 6.55c0.039 0.019 0.081 0.027 0.123 0.027 0.086 0 0.169-0.037 0.214-0.102l0.198-0.283c0.068-0.098 0.028-0.223-0.090-0.279s-0.269-0.023-0.338 0.075l-0.198 0.283c-0.068 0.098-0.028 0.223 0.090 0.279v0z"></path>
<path fill="#4d4949" style="fill: var(--color3, #4d4949)" d="M12.102 4.5l0.283 0.198c0.032 0.023 0.067 0.033 0.102 0.033 0.071 0 0.139-0.044 0.177-0.124 0.056-0.118 0.023-0.269-0.075-0.338l-0.283-0.198c-0.098-0.068-0.223-0.028-0.279 0.090s-0.023 0.269 0.075 0.338v0z"></path>
<path fill="#4d4949" style="fill: var(--color3, #4d4949)" d="M11.539 7.141l-0.198 0.283c-0.068 0.098-0.028 0.223 0.090 0.279 0.039 0.019 0.081 0.027 0.123 0.027 0.086 0 0.169-0.037 0.214-0.102l0.198-0.283c0.068-0.098 0.028-0.223-0.090-0.279s-0.269-0.023-0.338 0.075v0z"></path>
<path fill="#4d4949" style="fill: var(--color3, #4d4949)" d="M3.34 3.097c0.014 0.008 0.029 0.015 0.045 0.019v3.931c0 0.122 0.098 0.221 0.219 0.221s0.219-0.099 0.219-0.221v-4.355c0.029-0.061 0.027-0.13 0-0.188v-1.377h2.708c0.016 0.020 0.036 0.037 0.059 0.050l0.303 0.177c0.034 0.020 0.072 0.030 0.109 0.030 0.076 0 0.149-0.040 0.19-0.111 0.026-0.046 0.034-0.098 0.026-0.147h5.499v2.613c0 0.122 0.098 0.221 0.219 0.221s0.219-0.099 0.219-0.221v-2.834c0-0.122-0.098-0.222-0.219-0.222h-6.906c0.020-0.016 0.037-0.036 0.051-0.060 0.060-0.106 0.025-0.241-0.080-0.302l-0.303-0.177c-0.105-0.061-0.238-0.025-0.299 0.081s-0.025 0.241 0.080 0.303l0.267 0.156h-0.777l0.129-0.226c0.060-0.106 0.025-0.241-0.080-0.303s-0.238-0.025-0.299 0.081l-0.175 0.307c-0.025 0.044-0.033 0.093-0.027 0.14h-0.912c-0.121 0-0.219 0.099-0.219 0.222v1.67l-0.125 0.219c-0.060 0.106-0.025 0.241 0.080 0.302z"></path>
<path fill="#4d4949" style="fill: var(--color3, #4d4949)" d="M10.739 8.857c0.039 0.019 0.081 0.027 0.123 0.027 0.086 0 0.168-0.037 0.214-0.102l0.198-0.283c0.068-0.098 0.028-0.223-0.090-0.279s-0.269-0.023-0.338 0.075l-0.198 0.283c-0.068 0.098-0.028 0.223 0.090 0.279v0z"></path>
<path fill="#4d4949" style="fill: var(--color3, #4d4949)" d="M5.769 1.731c-0.121 0-0.218 0.098-0.218 0.218v0.507c-0.33 0.081-0.591 0.342-0.672 0.672h-0.507c-0.121 0-0.218 0.098-0.218 0.218s0.098 0.218 0.218 0.218h0.507c0.081 0.33 0.342 0.591 0.672 0.672v0.507c0 0.121 0.098 0.218 0.218 0.218s0.218-0.098 0.218-0.218v-0.507c0.33-0.081 0.591-0.342 0.672-0.672h0.507c0.121 0 0.218-0.098 0.218-0.218s-0.098-0.218-0.218-0.218h-0.507c-0.081-0.33-0.342-0.591-0.672-0.672v-0.507c0-0.121-0.098-0.218-0.218-0.218zM6.249 3.346c0 0.265-0.215 0.48-0.48 0.48s-0.48-0.215-0.48-0.48c0-0.265 0.215-0.48 0.48-0.48s0.48 0.215 0.48 0.48z"></path>
<path fill="#4d4949" style="fill: var(--color3, #4d4949)" d="M14.779 7.269c-0.122 0-0.221 0.1-0.221 0.224 0 3.829-3.067 6.943-6.837 6.943-2.212 0-4.271-1.078-5.556-2.897h1.322c0.122 0 0.221-0.1 0.221-0.224s-0.099-0.224-0.221-0.224h-1.882c-0.122 0-0.221 0.1-0.221 0.224v1.911c0 0.124 0.099 0.224 0.221 0.224s0.221-0.1 0.221-0.224v-1.4c1.369 1.92 3.552 3.057 5.896 3.057 1.944 0 3.772-0.769 5.146-2.165s2.132-3.252 2.132-5.227c0-0.124-0.099-0.224-0.221-0.224z"></path>
</symbol>
<symbol id="icon-a-icon-arrow" viewBox="0 0 15 15">
<path fill="#4d4949" style="fill: var(--color3, #4d4949)" d="M7.5 10.587l-6.398-7.122c-0.157-0.175-0.41-0.175-0.567 0s-0.157 0.456 0 0.631l6.683 7.439c0.157 0.175 0.41 0.175 0.567 0l6.68-7.439c0.077-0.086 0.119-0.202 0.119-0.314s-0.039-0.228-0.119-0.314c-0.157-0.175-0.41-0.175-0.567 0l-6.398 7.119z"></path>
</symbol>
<symbol id="icon-a-icon-attach" viewBox="0 0 15 15">
<path fill="#fff" style="fill: var(--color4, #fff)" d="M13.588 1.031c-1.235-1.312-3.265-1.312-4.5 0l-3.882 4.031c-1.235 1.406-1.235 3.469 0 4.875 0.088 0.094 0.265 0.187 0.353 0.281l1.324-1.406c-0.088-0.094-0.265-0.187-0.353-0.281-0.529-0.563-0.529-1.5 0-2.063l3.882-4.125c0.529-0.563 1.412-0.563 1.941 0s0.529 1.5 0 2.063l-1.147 1.219c0.353 0.75 0.441 1.594 0.353 2.344l2.029-2.156c1.324-1.312 1.324-3.469 0-4.781v0z"></path>
<path fill="#fff" style="fill: var(--color4, #fff)" d="M9.441 4.781l-1.324 1.406c0 0 0.265 0.188 0.353 0.281 0.529 0.563 0.529 1.5 0 2.063l-3.882 4.125c-0.529 0.563-1.412 0.563-1.941 0s-0.529-1.5 0-2.063l1.147-1.219c-0.353-0.75-0.088-1.219-0.353-2.344l-2.029 2.156c-1.235 1.313-1.235 3.469 0 4.781s3.265 1.313 4.5 0l3.882-4.125c1.235-1.313 1.235-3.469 0-4.781-0.176-0.094-0.353-0.281-0.353-0.281z"></path>
</symbol>
<symbol id="icon-a-icon-comment" viewBox="0 0 15 15">
<path fill="#818181" style="fill: var(--color5, #818181)" d="M13.518 0.553l-8.535-0.018c-0.817 0-1.482 0.673-1.482 1.5v1.296l-2.018 0.004c-0.818 0-1.482 0.673-1.482 1.5v5.347c0 0.827 0.665 1.5 1.482 1.5h1.518v2.529c0 0.104 0.064 0.198 0.16 0.236 0.029 0.011 0.060 0.017 0.090 0.017 0.069 0 0.137-0.029 0.185-0.083l2.426-2.7 4.156-0.017c0.817 0 1.482-0.673 1.482-1.5v-0.029l1.315 1.463c0.048 0.054 0.116 0.083 0.185 0.083 0.030 0 0.061-0.006 0.090-0.017 0.097-0.038 0.16-0.132 0.16-0.236v-2.529h0.267c0.818 0 1.482-0.673 1.482-1.5v-5.348c0-0.827-0.665-1.5-1.482-1.5zM11 10.165c0 0.548-0.441 0.994-0.983 0.994l-4.268 0.018c-0.070 0-0.137 0.030-0.184 0.083l-2.065 2.298v-2.128c0-0.14-0.112-0.253-0.25-0.253h-1.767c-0.542 0-0.983-0.446-0.983-0.994v-5.347c0-0.548 0.441-0.994 0.983-0.994l2.267-0.005c0 0 0 0 0 0s0 0 0 0l6.267-0.013c0.542 0 0.982 0.446 0.982 0.994v5.347zM14.5 7.4c0 0.548-0.441 0.994-0.982 0.994h-0.518c-0.138 0-0.25 0.113-0.25 0.253v2.128l-1.25-1.391v-4.566c0-0.827-0.665-1.5-1.483-1.5l-6.017 0.012v-1.295c0-0.548 0.441-0.994 0.982-0.994l8.535 0.018c0 0 0 0 0 0 0.542 0 0.982 0.446 0.982 0.994v5.347h-0z"></path>
</symbol>
<symbol id="icon-a-icon-dribbble" viewBox="0 0 15 15">
<path fill="#4d4949" style="fill: var(--color3, #4d4949)" d="M7.5 0c-4.13 0-7.5 3.371-7.5 7.5s3.371 7.5 7.5 7.5c4.13 0 7.5-3.371 7.5-7.5s-3.371-7.5-7.5-7.5zM12.587 3.267c0.936 1.123 1.508 2.56 1.533 4.128-1.174-0.275-2.477-0.293-3.804-0.051-0.345 0.063-0.691 0.143-1.034 0.239-0.114-0.311-0.236-0.619-0.364-0.924-0.132-0.311-0.27-0.618-0.416-0.919 1.582-0.604 3.296-1.504 4.086-2.472zM7.5 0.879c1.723 0 3.294 0.662 4.474 1.744-0.46 0.627-1.771 1.54-3.874 2.328-0.734-1.367-1.615-2.623-2.632-3.753 0.64-0.207 1.323-0.319 2.032-0.319zM4.598 1.55c1.037 1.111 1.93 2.352 2.665 3.693-2.188 0.708-4.403 0.997-6.224 0.81 0.444-1.982 1.778-3.631 3.56-4.503zM0.879 7.5c0-0.195 0.009-0.387 0.025-0.577 0.402 0.042 0.821 0.064 1.254 0.064 1.709 0 3.629-0.329 5.514-0.953 0.288 0.589 0.546 1.195 0.775 1.816-0.735 0.264-1.45 0.6-2.122 1-1.647 0.981-2.852 2.242-3.352 3.478-1.288-1.209-2.094-2.926-2.094-4.827zM7.5 14.121c-1.415 0-2.727-0.446-3.804-1.205 0.334-1.129 1.464-2.349 3.079-3.311 0.569-0.339 1.235-0.659 1.959-0.919 0.514 1.614 0.828 3.318 0.928 5.072-0.678 0.235-1.405 0.363-2.162 0.363zM10.52 13.392c-0.122-1.709-0.44-3.372-0.951-4.97 1.424-0.391 3.005-0.523 4.505-0.134-0.265 2.227-1.64 4.118-3.554 5.104z"></path>
</symbol>
<symbol id="icon-a-icon-facebook" viewBox="0 0 15 15">
<path fill="#4d4949" style="fill: var(--color3, #4d4949)" d="M8.575 15h-2.576c-0.43 0-0.78-0.326-0.78-0.728v-5.418h-1.503c-0.43 0-0.78-0.326-0.78-0.728v-2.322c0-0.401 0.35-0.728 0.78-0.728h1.503v-1.163c0-1.153 0.388-2.134 1.122-2.836 0.738-0.706 1.768-1.079 2.981-1.079l1.965 0.003c0.43 0.001 0.779 0.327 0.779 0.728v2.156c0 0.401-0.35 0.728-0.78 0.728l-1.323 0c-0.403 0-0.506 0.075-0.528 0.099-0.036 0.038-0.079 0.147-0.079 0.446v0.919h1.831c0.138 0 0.271 0.032 0.386 0.091 0.248 0.129 0.401 0.373 0.401 0.636l-0.001 2.322c0 0.401-0.35 0.727-0.78 0.727h-1.837v5.418c0 0.401-0.35 0.728-0.78 0.728v0zM6.161 14.121h2.251v-5.66c0-0.268 0.234-0.486 0.521-0.486h2.096l0.001-2.018h-2.097c-0.287 0-0.521-0.218-0.521-0.486v-1.312c0-0.344 0.037-0.734 0.316-1.028 0.336-0.355 0.866-0.396 1.235-0.396l1.16-0v-1.852l-1.801-0.003c-1.949 0-3.16 1.163-3.16 3.035v1.556c0 0.268-0.234 0.486-0.521 0.486h-1.762v2.018h1.762c0.287 0 0.521 0.218 0.521 0.486v5.66z"></path>
</symbol>
<symbol id="icon-a-icon-hidepass" viewBox="0 0 15 15">
<path fill="#4d4949" style="fill: var(--color3, #4d4949)" d="M12.938 5.468c-3.012-3.005-7.913-3.005-10.926 0l-2.012 2.007 2.062 2.057c1.506 1.502 3.484 2.254 5.463 2.254s3.957-0.751 5.463-2.254l2.012-2.007-2.062-2.057zM12.629 9.174c-2.815 2.808-7.394 2.808-10.209 0l-1.704-1.7 1.654-1.65c2.815-2.808 7.394-2.808 10.209 0l1.704 1.7-1.654 1.65z"></path>
<path fill="#4d4949" style="fill: var(--color3, #4d4949)" d="M7.232 5.357c-1.034 0-1.875 0.841-1.875 1.875 0 0.148 0.12 0.268 0.268 0.268s0.268-0.12 0.268-0.268c0-0.738 0.601-1.339 1.339-1.339 0.148 0 0.268-0.12 0.268-0.268s-0.12-0.268-0.268-0.268z"></path>
<path fill="#4d4949" style="fill: var(--color3, #4d4949)" d="M7.5 4.286c-1.772 0-3.214 1.442-3.214 3.214s1.442 3.214 3.214 3.214c1.772 0 3.214-1.442 3.214-3.214s-1.442-3.214-3.214-3.214zM7.5 10.22c-1.5 0-2.72-1.22-2.72-2.72s1.22-2.72 2.72-2.72c1.5 0 2.72 1.22 2.72 2.72s-1.22 2.72-2.72 2.72z"></path>
<path fill="none" stroke="#fff" style="stroke: var(--color4, #fff)" stroke-linejoin="miter" stroke-linecap="butt" stroke-miterlimit="4" stroke-width="1.0714" d="M11.734 3.266c-0.069-0.069-0.181-0.069-0.25 0l-8.218 8.218c-0.069 0.069-0.069 0.181 0 0.25 0.034 0.034 0.080 0.052 0.125 0.052s0.090-0.017 0.125-0.052l8.218-8.218c0.069-0.069 0.069-0.181 0-0.25z"></path>
<path fill="none" stroke="#4d4949" style="stroke: var(--color3, #4d4949)" stroke-linejoin="miter" stroke-linecap="butt" stroke-miterlimit="4" stroke-width="0.4286" d="M11.734 3.266c-0.069-0.069-0.181-0.069-0.25 0l-8.218 8.218c-0.069 0.069-0.069 0.181 0 0.25 0.034 0.034 0.080 0.052 0.125 0.052s0.090-0.017 0.125-0.052l8.218-8.218c0.069-0.069 0.069-0.181 0-0.25z"></path>
</symbol>
<symbol id="icon-a-icon-iconset" viewBox="0 0 15 15">
<path fill="#4d4949" style="fill: var(--color3, #4d4949)" d="M8.042 10.114h-6.299c-0.152 0-0.275 0.123-0.275 0.274s0.123 0.274 0.275 0.274h6.299c0.152 0 0.275-0.123 0.275-0.274s-0.123-0.274-0.275-0.274z"></path>
<path fill="#4d4949" style="fill: var(--color3, #4d4949)" d="M11.43 2.518c-0.152 0-0.275 0.123-0.275 0.274v5.281l-2.436-3.395c-0.108-0.15-0.34-0.15-0.448 0l-2.759 3.844-2.12-1.846c-0.104-0.090-0.259-0.090-0.362 0l-1.342 1.169c-0.114 0.1-0.126 0.273-0.026 0.387s0.274 0.125 0.388 0.026l1.161-1.011 2.167 1.887c0.121 0.105 0.312 0.083 0.405-0.047l2.712-3.778 2.66 3.707v1.099h-1.792c-0.152 0-0.275 0.123-0.275 0.274s0.123 0.274 0.275 0.274h2.067c0.152 0 0.275-0.123 0.275-0.274v-7.596c0-0.151-0.123-0.274-0.275-0.274z"></path>
<path fill="#4d4949" style="fill: var(--color3, #4d4949)" d="M5.559 5.987c0.637 0 1.156-0.516 1.156-1.151s-0.518-1.15-1.156-1.15c-0.637 0-1.156 0.516-1.156 1.15s0.519 1.151 1.156 1.151zM5.559 4.234c0.334 0 0.606 0.27 0.606 0.603s-0.272 0.603-0.606 0.603-0.605-0.27-0.605-0.603c0-0.332 0.272-0.603 0.605-0.603z"></path>
<path fill="#4d4949" style="fill: var(--color3, #4d4949)" d="M2.735 12.743h-0.451c-0.152 0-0.275 0.123-0.275 0.274s0.123 0.274 0.275 0.274h0.451c0.152 0 0.275-0.123 0.275-0.274s-0.123-0.274-0.275-0.274z"></path>
<path fill="#4d4949" style="fill: var(--color3, #4d4949)" d="M4.388 12.743h-0.451c-0.152 0-0.275 0.123-0.275 0.274s0.123 0.274 0.275 0.274h0.451c0.152 0 0.275-0.123 0.275-0.274s-0.123-0.274-0.275-0.274z"></path>
<path fill="#4d4949" style="fill: var(--color3, #4d4949)" d="M9.345 12.743h-0.451c-0.152 0-0.275 0.123-0.275 0.274s0.123 0.274 0.275 0.274h0.451c0.152 0 0.275-0.123 0.275-0.274s-0.123-0.274-0.275-0.274z"></path>
<path fill="#4d4949" style="fill: var(--color3, #4d4949)" d="M12.65 12.743h-0.451c-0.152 0-0.275 0.123-0.275 0.274s0.123 0.274 0.275 0.274h0.451c0.152 0 0.275-0.123 0.275-0.274s-0.123-0.274-0.275-0.274v0z"></path>
<path fill="#4d4949" style="fill: var(--color3, #4d4949)" d="M6.040 12.743h-0.451c-0.152 0-0.275 0.123-0.275 0.274s0.123 0.274 0.275 0.274h0.451c0.152 0 0.275-0.123 0.275-0.274s-0.123-0.274-0.275-0.274z"></path>
<path fill="#4d4949" style="fill: var(--color3, #4d4949)" d="M10.998 12.743h-0.451c-0.152 0-0.275 0.123-0.275 0.274s0.123 0.274 0.275 0.274h0.451c0.152 0 0.275-0.123 0.275-0.274s-0.123-0.274-0.275-0.274v0z"></path>
<path fill="#4d4949" style="fill: var(--color3, #4d4949)" d="M7.693 12.743h-0.451c-0.152 0-0.275 0.123-0.275 0.274s0.123 0.274 0.275 0.274h0.451c0.152 0 0.275-0.123 0.275-0.274s-0.123-0.274-0.275-0.274z"></path>
<path fill="#4d4949" style="fill: var(--color3, #4d4949)" d="M0.862 10.939c-0.152 0-0.275 0.123-0.275 0.274v0.432c0 0.151 0.123 0.274 0.275 0.274s0.275-0.123 0.275-0.274v-0.432c0-0.151-0.123-0.274-0.275-0.274z"></path>
<path fill="#4d4949" style="fill: var(--color3, #4d4949)" d="M1.138 9.628c0-0.151-0.123-0.274-0.275-0.274s-0.275 0.123-0.275 0.274v0.432c0 0.151 0.123 0.274 0.275 0.274s0.275-0.123 0.275-0.274v-0.432z"></path>
<path fill="#4d4949" style="fill: var(--color3, #4d4949)" d="M1.138 8.042c0-0.151-0.123-0.274-0.275-0.274s-0.275 0.123-0.275 0.274v0.432c0 0.151 0.123 0.274 0.275 0.274s0.275-0.123 0.275-0.274v-0.432z"></path>
<path fill="#4d4949" style="fill: var(--color3, #4d4949)" d="M1.138 3.287c0-0.151-0.123-0.274-0.275-0.274s-0.275 0.123-0.275 0.274v0.432c0 0.151 0.123 0.274 0.275 0.274s0.275-0.123 0.275-0.274v-0.432z"></path>
<path fill="#4d4949" style="fill: var(--color3, #4d4949)" d="M1.138 4.872c0-0.151-0.123-0.274-0.275-0.274s-0.275 0.123-0.275 0.274v0.432c0 0.151 0.123 0.274 0.275 0.274s0.275-0.123 0.275-0.274v-0.432z"></path>
<path fill="#4d4949" style="fill: var(--color3, #4d4949)" d="M1.138 6.457c0-0.151-0.123-0.274-0.275-0.274s-0.275 0.123-0.275 0.274v0.432c0 0.151 0.123 0.274 0.275 0.274s0.275-0.123 0.275-0.274v-0.432z"></path>
<path fill="#4d4949" style="fill: var(--color3, #4d4949)" d="M8.895 2.189h0.451c0.152 0 0.275-0.123 0.275-0.274s-0.123-0.274-0.275-0.274h-0.451c-0.152 0-0.275 0.123-0.275 0.274s0.123 0.274 0.275 0.274z"></path>
<path fill="#4d4949" style="fill: var(--color3, #4d4949)" d="M5.589 2.189h0.451c0.152 0 0.275-0.123 0.275-0.274s-0.123-0.274-0.275-0.274h-0.451c-0.152 0-0.275 0.123-0.275 0.274s0.123 0.274 0.275 0.274z"></path>
<path fill="#4d4949" style="fill: var(--color3, #4d4949)" d="M10.547 2.189h0.451c0.152 0 0.275-0.123 0.275-0.274s-0.123-0.274-0.275-0.274h-0.451c-0.152 0-0.275 0.123-0.275 0.274s0.123 0.274 0.275 0.274v0z"></path>
<path fill="#4d4949" style="fill: var(--color3, #4d4949)" d="M7.242 2.189h0.451c0.152 0 0.275-0.123 0.275-0.274s-0.123-0.274-0.275-0.274h-0.451c-0.152 0-0.275 0.123-0.275 0.274s0.123 0.274 0.275 0.274z"></path>
<path fill="#4d4949" style="fill: var(--color3, #4d4949)" d="M12.65 1.641h-0.451c-0.152 0-0.275 0.123-0.275 0.274s0.123 0.274 0.275 0.274h0.451c0.152 0 0.275-0.123 0.275-0.274s-0.123-0.274-0.275-0.274v0z"></path>
<path fill="#4d4949" style="fill: var(--color3, #4d4949)" d="M3.937 2.189h0.451c0.152 0 0.275-0.123 0.275-0.274s-0.123-0.274-0.275-0.274h-0.451c-0.152 0-0.275 0.123-0.275 0.274s0.123 0.274 0.275 0.274z"></path>
<path fill="#4d4949" style="fill: var(--color3, #4d4949)" d="M2.284 2.189h0.451c0.152 0 0.275-0.123 0.275-0.274s-0.123-0.274-0.275-0.274h-0.451c-0.152 0-0.275 0.123-0.275 0.274s0.123 0.274 0.275 0.274z"></path>
<path fill="#4d4949" style="fill: var(--color3, #4d4949)" d="M14.348 9.628c0-0.151-0.123-0.274-0.275-0.274s-0.275 0.123-0.275 0.274v0.432c0 0.151 0.123 0.274 0.275 0.274s0.275-0.123 0.275-0.274v-0.432z"></path>
<path fill="#4d4949" style="fill: var(--color3, #4d4949)" d="M14.348 8.042c0-0.151-0.123-0.274-0.275-0.274s-0.275 0.123-0.275 0.274v0.432c0 0.151 0.123 0.274 0.275 0.274s0.275-0.123 0.275-0.274v-0.432z"></path>
<path fill="#4d4949" style="fill: var(--color3, #4d4949)" d="M14.348 6.457c0-0.151-0.123-0.274-0.275-0.274s-0.275 0.123-0.275 0.274v0.432c0 0.151 0.123 0.274 0.275 0.274s0.275-0.123 0.275-0.274v-0.432z"></path>
<path fill="#4d4949" style="fill: var(--color3, #4d4949)" d="M14.073 10.939c-0.152 0-0.275 0.123-0.275 0.274v0.432c0 0.151 0.123 0.274 0.275 0.274s0.275-0.123 0.275-0.274v-0.432c0-0.151-0.123-0.274-0.275-0.274z"></path>
<path fill="#4d4949" style="fill: var(--color3, #4d4949)" d="M14.348 4.872c0-0.151-0.123-0.274-0.275-0.274s-0.275 0.123-0.275 0.274v0.432c0 0.151 0.123 0.274 0.275 0.274s0.275-0.123 0.275-0.274v-0.432z"></path>
<path fill="#4d4949" style="fill: var(--color3, #4d4949)" d="M14.348 3.287c0-0.151-0.123-0.274-0.275-0.274s-0.275 0.123-0.275 0.274v0.432c0 0.151 0.123 0.274 0.275 0.274s0.275-0.123 0.275-0.274v-0.432z"></path>
<path fill="#4d4949" style="fill: var(--color3, #4d4949)" d="M0.275 2.773h1.174c0.152 0 0.275-0.123 0.275-0.274v-1.169c0-0.151-0.123-0.274-0.275-0.274h-1.174c-0.152 0-0.275 0.123-0.275 0.274v1.169c0 0.151 0.123 0.274 0.275 0.274zM0.55 1.605h0.624v0.621h-0.624v-0.621z"></path>
<path fill="#4d4949" style="fill: var(--color3, #4d4949)" d="M13.485 2.773h1.174c0.152 0 0.275-0.123 0.275-0.274v-1.169c0-0.151-0.123-0.274-0.275-0.274h-1.174c-0.152 0-0.275 0.123-0.275 0.274v1.169c0 0.151 0.123 0.274 0.275 0.274v0zM13.761 1.605h0.624v0.621h-0.624v-0.621z"></path>
<path fill="#4d4949" style="fill: var(--color3, #4d4949)" d="M1.449 12.159h-1.174c-0.152 0-0.275 0.123-0.275 0.274v1.169c0 0.151 0.123 0.274 0.275 0.274h1.174c0.152 0 0.275-0.123 0.275-0.274v-1.169c0-0.151-0.123-0.274-0.275-0.274zM1.174 13.328h-0.624v-0.621h0.624v0.621z"></path>
<path fill="#4d4949" style="fill: var(--color3, #4d4949)" d="M14.719 12.159h-1.174c-0.152 0-0.275 0.123-0.275 0.274v1.169c0 0.151 0.123 0.274 0.275 0.274h1.174c0.152 0 0.275-0.123 0.275-0.274v-1.169c0-0.151-0.123-0.274-0.275-0.274zM14.443 13.328h-0.624v-0.621h0.624v0.621z"></path>
</symbol>
<symbol id="icon-a-icon-instagram" viewBox="0 0 15 15">
<path fill="#4d4949" style="fill: var(--color3, #4d4949)" d="M10.94 0h-6.879c-2.239 0-4.060 1.821-4.060 4.060v6.879c0 2.239 1.821 4.060 4.060 4.060h6.879c2.239 0 4.060-1.821 4.060-4.060v-6.879c0-2.239-1.821-4.060-4.060-4.060zM14.121 10.94c0 1.754-1.427 3.181-3.181 3.181h-6.879c-1.754 0-3.181-1.427-3.181-3.181v-6.879c0-1.754 1.427-3.181 3.181-3.181h6.879c1.754 0 3.181 1.427 3.181 3.181v6.879z"></path>
<path fill="#4d4949" style="fill: var(--color3, #4d4949)" d="M7.174 3.913c-2.158 0-3.913 1.755-3.913 3.913s1.755 3.913 3.913 3.913c2.158 0 3.913-1.755 3.913-3.913s-1.755-3.913-3.913-3.913zM7.174 10.9c-1.695 0-3.074-1.379-3.074-3.074s1.379-3.074 3.074-3.074c1.695 0 3.074 1.379 3.074 3.074s-1.379 3.074-3.074 3.074z"></path>
<path fill="#4d4949" style="fill: var(--color3, #4d4949)" d="M11.087 1.957c-0.719 0-1.304 0.585-1.304 1.304s0.585 1.304 1.304 1.304 1.304-0.585 1.304-1.304c0-0.719-0.585-1.304-1.304-1.304zM11.087 3.619c-0.197 0-0.358-0.161-0.358-0.358s0.161-0.358 0.358-0.358c0.197 0 0.358 0.16 0.358 0.358s-0.161 0.358-0.358 0.358z"></path>
</symbol>
<symbol id="icon-a-icon-like-1" viewBox="0 0 15 15">
<path fill="#4d4949" style="fill: var(--color3, #4d4949)" d="M0 6.691v7.244c0 0.456 0.359 0.824 0.795 0.824h2.377c0.273 0 0.51-0.139 0.656-0.355 0.379 0.367 0.885 0.596 1.443 0.596h6.369c1.427 0 2.336-0.777 2.499-2.129l0.856-5.643c0.004-0.021 0.004-0.042 0.004-0.063 0-1.204-0.946-2.184-2.108-2.184h-3.184v-2.37c0-1.026-0.289-1.766-0.864-2.205-0.909-0.689-2.153-0.296-2.206-0.279-0.167 0.055-0.281 0.215-0.281 0.397v2.695c0 2.099-2.357 2.818-2.454 2.847-0.049 0.013-0.098 0.038-0.135 0.072-0.147-0.169-0.359-0.275-0.591-0.275h-2.381c-0.44 0-0.795 0.372-0.795 0.828zM3.971 6.885c0.049 0.004 0.098 0 0.147-0.013 0.126-0.038 3.046-0.912 3.046-3.65v-2.361c0.314-0.051 0.832-0.068 1.203 0.22 0.355 0.27 0.534 0.786 0.534 1.525v2.788c0 0.232 0.179 0.418 0.404 0.418h3.588c0.709 0 1.284 0.587 1.301 1.318l-0.852 5.614c0 0.004 0 0.008 0 0.013-0.11 0.929-0.681 1.398-1.7 1.398h-6.369c-0.718 0-1.301-0.604-1.301-1.348v-5.922zM0.807 6.7h2.357v7.223h-2.357v-7.223z"></path>
</symbol>
<symbol id="icon-a-icon-like-hover" viewBox="0 0 15 15">
<path fill="#4d4949" style="fill: var(--color3, #4d4949)" d="M0 6.691v7.244c0 0.456 0.359 0.824 0.795 0.824h2.377c0.273 0 0.51-0.139 0.656-0.355 0.379 0.367 0.885 0.596 1.443 0.596h6.369c1.427 0 2.336-0.777 2.499-2.129l0.856-5.643c0.004-0.021 0.004-0.042 0.004-0.063 0-1.204-0.946-2.184-2.108-2.184h-3.184v-2.37c0-1.026-0.289-1.766-0.864-2.205-0.909-0.689-2.153-0.296-2.206-0.279-0.167 0.055-0.281 0.215-0.281 0.397v2.695c0 2.099-2.357 2.818-2.454 2.847-0.049 0.013-0.098 0.038-0.135 0.072-0.147-0.169-0.359-0.275-0.591-0.275h-2.381c-0.44 0-0.795 0.372-0.795 0.828zM3.971 6.885c0.049 0.004 0.098 0 0.147-0.013 0.126-0.038 3.046-0.912 3.046-3.65v-2.361c0.314-0.051 0.832-0.068 1.203 0.22 0.355 0.27 0.534 0.786 0.534 1.525v2.788c0 0.232 0.179 0.418 0.404 0.418h3.588c0.709 0 1.284 0.587 1.301 1.318l-0.852 5.614c0 0.004 0 0.008 0 0.013-0.11 0.929-0.681 1.398-1.7 1.398h-6.369c-0.718 0-1.301-0.604-1.301-1.348v-5.922zM0.807 6.7h2.357v7.223h-2.357v-7.223z"></path>
<path fill="#4d4949" style="fill: var(--color3, #4d4949)" d="M0.592 6.7v7.43l6.771 0.221 6.034-0.221 0.952-7.491-0.952-0.884-2.456-0.258h-1.84v-4.14l-0.573-0.567h-1.165l-0.329 0.118v2.486l-0.771 1.859-0.879 0.968-2.519 0.419z"></path>
</symbol>
<symbol id="icon-a-icon-mail" viewBox="0 0 15 15">
<path fill="#4d4949" style="fill: var(--color3, #4d4949)" d="M9.902 5.764c-0.062-0.062-0.148-0.098-0.236-0.098s-0.174 0.036-0.236 0.098c-0.062 0.062-0.098 0.148-0.098 0.236s0.036 0.174 0.098 0.236c0.062 0.062 0.148 0.098 0.236 0.098s0.174-0.036 0.236-0.098c0.062-0.062 0.098-0.148 0.098-0.236s-0.036-0.174-0.098-0.236z"></path>
<path fill="#4d4949" style="fill: var(--color3, #4d4949)" d="M14.632 0.166c-0.003-0.003-0.007-0.005-0.010-0.007-0.143-0.1-0.317-0.158-0.504-0.158h-8.235c-0.176 0-0.339 0.052-0.477 0.14-0.011 0.006-0.022 0.013-0.032 0.021-0.226 0.159-0.374 0.422-0.374 0.718v4.574c0 0.485 0.396 0.88 0.882 0.88h2.176c0.162 0 0.294-0.131 0.294-0.293s-0.132-0.293-0.294-0.293h-1.888l2.414-2.812 1.243 0.894c0.051 0.037 0.112 0.055 0.172 0.055s0.12-0.018 0.172-0.055l1.245-0.893 2.412 2.81h-3.006c-0.162 0-0.294 0.131-0.294 0.293s0.132 0.293 0.294 0.293h3.294c0.487 0 0.882-0.395 0.882-0.88v-4.574c0-0.294-0.145-0.554-0.368-0.714zM5.595 5.516c-0.004-0.020-0.007-0.041-0.007-0.062v-4.574c0-0.031 0.005-0.062 0.014-0.090l2.504 1.801-2.511 2.925zM10 3.23l-3.675-2.644h7.362l-3.686 2.644zM14.412 5.454c0 0.021-0.002 0.042-0.007 0.062l-2.509-2.923 2.504-1.796c0.008 0.026 0.012 0.054 0.012 0.082v4.574z"></path>
<path fill="#4d4949" style="fill: var(--color3, #4d4949)" d="M12.989 12.667c-0.052 0-0.1 0.011-0.144 0.029h-0.168c-0.19 0-0.344 0.143-0.344 0.319s0.154 0.319 0.344 0.319h0.312c0.19 0 0.344-0.143 0.344-0.319v-0.029c-0-0.176-0.154-0.319-0.344-0.319z"></path>
<path fill="#4d4949" style="fill: var(--color3, #4d4949)" d="M13 11.333c-0.184 0-0.333 0.149-0.333 0.333v0.333c0 0.184 0.149 0.333 0.333 0.333s0.333-0.149 0.333-0.333v-0.333c0-0.184-0.149-0.333-0.333-0.333z"></path>
<path fill="#4d4949" style="fill: var(--color3, #4d4949)" d="M11.667 12.667h-0.333c-0.184 0-0.333 0.149-0.333 0.333s0.149 0.333 0.333 0.333h0.333c0.184 0 0.333-0.149 0.333-0.333s-0.149-0.333-0.333-0.333z"></path>
<path fill="#4d4949" style="fill: var(--color3, #4d4949)" d="M13 7c-0.184 0-0.333 0.149-0.333 0.333v0.333c0 0.184 0.149 0.333 0.333 0.333s0.333-0.149 0.333-0.333v-0.333c0-0.184-0.149-0.333-0.333-0.333z"></path>
<path fill="#4d4949" style="fill: var(--color3, #4d4949)" d="M13 8.667c-0.184 0-0.333 0.149-0.333 0.333v0.333c0 0.184 0.149 0.333 0.333 0.333s0.333-0.149 0.333-0.333v-0.333c0-0.184-0.149-0.333-0.333-0.333z"></path>
<path fill="#4d4949" style="fill: var(--color3, #4d4949)" d="M13 10c-0.184 0-0.333 0.149-0.333 0.333v0.333c0 0.184 0.149 0.333 0.333 0.333s0.333-0.149 0.333-0.333v-0.333c0-0.184-0.149-0.333-0.333-0.333z"></path>
<path fill="#4d4949" style="fill: var(--color3, #4d4949)" d="M2.333 1.667h-0.333c-0.184 0-0.333 0.149-0.333 0.333s0.149 0.333 0.333 0.333h0.333c0.184 0 0.333-0.149 0.333-0.333s-0.149-0.333-0.333-0.333z"></path>
<path fill="#4d4949" style="fill: var(--color3, #4d4949)" d="M3.667 1.667h-0.333c-0.184 0-0.333 0.149-0.333 0.333s0.149 0.333 0.333 0.333h0.333c0.184 0 0.333-0.149 0.333-0.333s-0.149-0.333-0.333-0.333z"></path>
<path fill="#4d4949" style="fill: var(--color3, #4d4949)" d="M2 2.667c-0.184 0-0.333 0.149-0.333 0.333v0.333c0 0.184 0.149 0.333 0.333 0.333s0.333-0.149 0.333-0.333v-0.333c0-0.184-0.149-0.333-0.333-0.333z"></path>
<path fill="#4d4949" style="fill: var(--color3, #4d4949)" d="M2 4c-0.184 0-0.333 0.149-0.333 0.333v0.333c0 0.184 0.149 0.333 0.333 0.333s0.333-0.149 0.333-0.333v-0.333c0-0.184-0.149-0.333-0.333-0.333z"></path>
<path fill="#4d4949" style="fill: var(--color3, #4d4949)" d="M3.236 11.764c-0.062-0.062-0.148-0.098-0.236-0.098s-0.174 0.036-0.236 0.098c-0.062 0.062-0.097 0.148-0.097 0.236s0.035 0.174 0.097 0.236c0.062 0.062 0.148 0.098 0.236 0.098s0.173-0.036 0.236-0.098c0.062-0.062 0.098-0.148 0.098-0.236s-0.036-0.174-0.098-0.236z"></path>
<path fill="#4d4949" style="fill: var(--color3, #4d4949)" d="M9.005 12.221l-1.524-1.524c-0.437-0.437-1.149-0.437-1.587 0l-0.099 0.099c-0.138 0.138-0.362 0.138-0.5 0l-1.090-1.090c-0.067-0.067-0.104-0.156-0.104-0.25s0.037-0.183 0.104-0.25l0.099-0.099c0.437-0.437 0.437-1.149 0-1.587l-1.524-1.524c-0.437-0.437-1.149-0.437-1.587 0l-0.365 0.365c-1.103 1.103-1.103 2.898 0 4.002l0.994 0.994c0.113 0.113 0.296 0.113 0.409 0s0.113-0.296 0-0.409l-0.994-0.994c-0.878-0.878-0.878-2.306 0-3.183l0.365-0.365c0.212-0.212 0.557-0.212 0.768 0l1.524 1.524c0.212 0.212 0.212 0.557 0 0.768l-0.099 0.099c-0.036 0.036-0.069 0.076-0.099 0.117l-1.204-1.204c-0.113-0.113-0.296-0.113-0.409 0s-0.113 0.296 0 0.409l1.445 1.445c0.024 0.208 0.116 0.401 0.267 0.552l1.090 1.090c0.364 0.364 0.955 0.364 1.319-0l0.099-0.099c0.212-0.212 0.557-0.212 0.768 0l1.524 1.524c0.103 0.103 0.159 0.239 0.159 0.384s-0.057 0.282-0.159 0.384l-0.207 0.207-1.387-1.387c-0.113-0.113-0.296-0.113-0.409 0s-0.113 0.296 0 0.409l1.367 1.367c-0.879 0.638-2.12 0.561-2.912-0.231l-0.749-0.749c-0.113-0.113-0.296-0.113-0.409 0s-0.113 0.296 0 0.409l0.749 0.749c0.552 0.552 1.276 0.828 2.001 0.828s1.449-0.276 2.001-0.827l0.365-0.365c0.212-0.212 0.329-0.494 0.329-0.793s-0.117-0.581-0.329-0.793z"></path>
</symbol>
<symbol id="icon-a-icon-melody" viewBox="0 0 15 15">
<path fill="#d8d8d8" style="fill: var(--color2, #d8d8d8)" d="M14.345 0.068c-0.059-0.052-0.136-0.075-0.215-0.066l-8.434 1.094c-0.135 0.018-0.237 0.133-0.237 0.27v9.713c-0.497-0.599-1.286-0.988-2.176-0.988-1.5 0-2.721 1.101-2.721 2.455s1.22 2.455 2.721 2.455c1.5 0 2.721-1.101 2.721-2.455 0-0.063-0.005-0.125-0.011-0.187 0.004-0.018 0.011-0.034 0.011-0.052v-7.91l7.89-1.024v4.979c-0.497-0.598-1.286-0.988-2.176-0.988-1.5 0-2.721 1.101-2.721 2.455s1.22 2.455 2.721 2.455c1.487 0 2.697-1.082 2.719-2.418 0-0.004 0.002-0.007 0.002-0.010v-9.572c0-0.079-0.034-0.153-0.093-0.205zM3.283 14.455c-1.2 0-2.176-0.857-2.176-1.909s0.976-1.909 2.176-1.909c1.2 0 2.176 0.857 2.176 1.909s-0.976 1.909-2.176 1.909zM11.717 11.727c-1.2 0-2.176-0.857-2.176-1.909s0.976-1.909 2.176-1.909c1.2 0 2.176 0.857 2.176 1.909s-0.976 1.909-2.176 1.909zM6.004 3.846v-2.24l7.89-1.023v2.239l-7.89 1.024z"></path>
</symbol>
<symbol id="icon-a-icon-picture" viewBox="0 0 15 15">
<path fill="#d8d8d8" style="fill: var(--color2, #d8d8d8)" d="M13.707 0h-12.414c-0.714 0-1.293 0.579-1.293 1.293v12.414c0 0.714 0.579 1.293 1.293 1.293h12.414c0.714 0 1.293-0.579 1.293-1.293v-12.414c0-0.714-0.579-1.293-1.293-1.293zM0.517 1.293c0-0.429 0.347-0.776 0.776-0.776h12.414c0.429 0 0.776 0.347 0.776 0.776v8.11l-3.698-4.159c-0.005-0.005-0.010-0.005-0.016-0.010s-0.016-0.010-0.021-0.016c-0.005-0.005-0.016-0.010-0.021-0.016s-0.016-0.010-0.021-0.010c-0.010-0.005-0.016-0.005-0.026-0.010-0.005 0-0.016-0.005-0.021-0.005-0.010 0-0.016-0.005-0.026-0.005s-0.016 0-0.026 0c-0.010 0-0.016 0-0.026 0s-0.016 0-0.026 0c-0.010 0-0.016 0.005-0.026 0.005s-0.016 0.005-0.021 0.005-0.016 0.005-0.026 0.010c-0.005 0.005-0.016 0.005-0.021 0.010s-0.016 0.010-0.021 0.016c-0.005 0.005-0.010 0.005-0.016 0.010l-0.010 0.010-4.96 4.981-0.372-0.336c-0.103-0.093-0.259-0.088-0.357 0.010l-4.112 4.179c-0.062-0.114-0.098-0.238-0.098-0.378v-12.403zM1.003 14.426l3.921-3.983 4.49 4.040h-8.121c-0.103 0-0.202-0.021-0.29-0.057zM13.707 14.483h-3.522l-4.345-3.91 4.748-4.764 3.89 4.376v3.522c0.005 0.424-0.347 0.776-0.771 0.776z"></path>
<path fill="#d8d8d8" style="fill: var(--color2, #d8d8d8)" d="M6 4.688c0 0.725-0.588 1.313-1.313 1.313s-1.313-0.588-1.313-1.313c0-0.725 0.588-1.313 1.313-1.313s1.313 0.588 1.313 1.313z"></path>
<path fill="#d8d8d8" style="fill: var(--color2, #d8d8d8)" d="M1.632 6c0.074 0 0.132-0.058 0.132-0.132v-4.103h4.103c0.074 0 0.132-0.058 0.132-0.132s-0.058-0.132-0.132-0.132h-4.235c-0.074 0-0.132 0.058-0.132 0.132v4.235c0 0.074 0.058 0.132 0.132 0.132z"></path>
</symbol>
<symbol id="icon-a-icon-play" viewBox="0 0 15 15">
<path fill="#4d4949" style="fill: var(--color3, #4d4949)" opacity="0.7" d="M15 7.5c0 4.142-3.358 7.5-7.5 7.5s-7.5-3.358-7.5-7.5c0-4.142 3.358-7.5 7.5-7.5s7.5 3.358 7.5 7.5z"></path>
<path fill="#fff" style="fill: var(--color4, #fff); stroke: var(--color4, #fff)" stroke="#fff" stroke-linejoin="miter" stroke-linecap="butt" stroke-miterlimit="4" stroke-width="0.2083" d="M6.402 5.199v4.905h0.322l3.149-2.495-3.471-2.411z"></path>
<path fill="#fff" style="fill: var(--color4, #fff)" d="M10.484 7.333l-4.15-2.903c-0.129-0.097-0.473-0.097-0.501 0.27v5.805c0.031 0.368 0.381 0.374 0.501 0.27l4.15-2.903c0.108-0.066 0.255-0.336 0-0.54zM6.475 9.887v-4.568l3.259 2.284-3.259 2.284z"></path>
</symbol>
<symbol id="icon-a-icon-playmini" viewBox="0 0 15 15">
<path fill="#d8d8d8" style="fill: var(--color2, #d8d8d8)" d="M10.731 7.216l-4.222-3.034c-0.131-0.102-0.481-0.102-0.509 0.282v6.068c0.031 0.384 0.388 0.391 0.509 0.282l4.222-3.034c0.109-0.069 0.259-0.351 0-0.565zM6.653 9.885v-4.774l3.316 2.387-3.316 2.387z"></path>
<path fill="#d8d8d8" style="fill: var(--color2, #d8d8d8)" d="M7.5 0c-4.136 0-7.5 3.364-7.5 7.5s3.364 7.5 7.5 7.5c4.136 0 7.5-3.364 7.5-7.5s-3.364-7.5-7.5-7.5zM7.5 14.36c-3.784 0-6.86-3.077-6.86-6.86s3.077-6.86 6.86-6.86c3.784 0 6.86 3.077 6.86 6.86s-3.077 6.86-6.86 6.86z"></path>
</symbol>
<symbol id="icon-a-icon-search-1" viewBox="0 0 15 15">
<path fill="#4D4949" style="fill: var(--color4, #4D4949)" d="M11.008 9.682c0.738-1.008 1.18-2.246 1.18-3.588 0-3.36-2.734-6.094-6.094-6.094s-6.094 2.734-6.094 6.094c0 3.36 2.734 6.094 6.094 6.094 1.342 0 2.58-0.442 3.588-1.18l3.992 3.992 1.326-1.326c0-0-3.992-3.992-3.992-3.992v0zM6.094 10.313c-2.326 0-4.219-1.892-4.219-4.219s1.892-4.219 4.219-4.219c2.326 0 4.219 1.892 4.219 4.219s-1.892 4.219-4.219 4.219z"></path>
</symbol>
<symbol id="icon-a-icon-showpass" viewBox="0 0 15 15">
<path fill="#4d4949" style="fill: var(--color3, #4d4949)" d="M12.938 5.468c-3.012-3.005-7.913-3.005-10.926 0l-2.012 2.007 2.062 2.057c1.506 1.502 3.484 2.254 5.463 2.254s3.957-0.751 5.463-2.254l2.012-2.007-2.062-2.057zM12.629 9.174c-2.815 2.808-7.394 2.808-10.209 0l-1.704-1.7 1.654-1.65c2.815-2.808 7.394-2.808 10.209 0l1.704 1.7-1.654 1.65z"></path>
<path fill="#4d4949" style="fill: var(--color3, #4d4949)" d="M7.232 5.357c-1.034 0-1.875 0.841-1.875 1.875 0 0.148 0.12 0.268 0.268 0.268s0.268-0.12 0.268-0.268c0-0.738 0.601-1.339 1.339-1.339 0.148 0 0.268-0.12 0.268-0.268s-0.12-0.268-0.268-0.268z"></path>
<path fill="#4d4949" style="fill: var(--color3, #4d4949)" d="M7.5 4.286c-1.772 0-3.214 1.442-3.214 3.214s1.442 3.214 3.214 3.214c1.772 0 3.214-1.442 3.214-3.214s-1.442-3.214-3.214-3.214zM7.5 10.22c-1.5 0-2.72-1.22-2.72-2.72s1.22-2.72 2.72-2.72c1.5 0 2.72 1.22 2.72 2.72s-1.22 2.72-2.72 2.72z"></path>
</symbol>
<symbol id="icon-a-icon-text" viewBox="0 0 15 15">
<path fill="#d8d8d8" style="fill: var(--color2, #d8d8d8)" d="M10.907 0.1l-0.003-0.003c-0.061-0.063-0.144-0.098-0.231-0.097h-4.571c-0.887 0-1.607 0.721-1.607 1.611v0.673h-2.138c-0.887 0-1.607 0.721-1.607 1.611v9.494c0 0.89 0.72 1.61 1.607 1.611h6.541c0.887-0 1.607-0.721 1.607-1.611v-0.673h2.138c0.887-0 1.607-0.721 1.607-1.611v-7.526c-0.001-0.085-0.034-0.167-0.093-0.229l-3.25-3.251zM10.994 1.099l2.163 2.165h-1.199c-0.532-0.002-0.963-0.433-0.964-0.967v-1.198zM8.898 14.356h-6.541c-0.532-0.002-0.963-0.433-0.964-0.967v-9.494c0.002-0.533 0.432-0.965 0.964-0.967h2.346c0.073 0.026 0.152 0.026 0.225 0h1.681v1.653c0 0.89 0.72 1.611 1.607 1.611h1.649v7.197c-0.003 0.534-0.435 0.965-0.967 0.967zM9.416 5.548h-1.199c-0.532-0.002-0.963-0.433-0.964-0.967v-1.198l2.163 2.165zM12.643 12.071h-2.138v-6.208c-0.001-0.085-0.034-0.167-0.093-0.229l-3.25-3.254c-0.061-0.063-0.144-0.098-0.231-0.097h-1.794v-0.673c0.002-0.533 0.432-0.965 0.964-0.967h4.253v1.653c0 0.89 0.72 1.61 1.607 1.611h1.646v7.197c-0.002 0.533-0.432 0.965-0.964 0.966v0z"></path>
<path fill="#d8d8d8" style="fill: var(--color2, #d8d8d8)" d="M2.689 8.14h3.276c0.179 0 0.323-0.156 0.323-0.349s-0.145-0.349-0.323-0.349h-3.276c-0.179 0-0.323 0.156-0.323 0.349s0.145 0.349 0.323 0.349z"></path>
<path fill="#d8d8d8" style="fill: var(--color2, #d8d8d8)" d="M8.508 9.767h-5.823c-0.176 0-0.319 0.156-0.319 0.349s0.143 0.349 0.319 0.349h5.823c0.176 0 0.319-0.156 0.319-0.349s-0.143-0.349-0.319-0.349z"></path>
<path fill="#d8d8d8" style="fill: var(--color2, #d8d8d8)" d="M8.508 12.093h-5.823c-0.176 0-0.319 0.156-0.319 0.349s0.143 0.349 0.319 0.349h5.823c0.176 0 0.319-0.156 0.319-0.349s-0.143-0.349-0.319-0.349z"></path>
<path fill="#d8d8d8" style="fill: var(--color2, #d8d8d8)" d="M12.315 7.442h-0.976c-0.177 0-0.32 0.156-0.32 0.349s0.143 0.349 0.32 0.349h0.976c0.177 0 0.32-0.156 0.32-0.349s-0.143-0.349-0.32-0.349v0z"></path>
<path fill="#d8d8d8" style="fill: var(--color2, #d8d8d8)" d="M12.315 9.767h-0.976c-0.177 0-0.32 0.156-0.32 0.349s0.143 0.349 0.32 0.349h0.976c0.177 0 0.32-0.156 0.32-0.349s-0.143-0.349-0.32-0.349v0z"></path>
</symbol>
<symbol id="icon-a-icon-time" viewBox="0 0 15 15">
<path fill="#818181" style="fill: var(--color5, #818181)" d="M7.5 0c-4.136 0-7.5 3.364-7.5 7.5s3.364 7.5 7.5 7.5c4.136 0 7.5-3.364 7.5-7.5s-3.364-7.5-7.5-7.5zM7.5 14.5c-3.86 0-7-3.14-7-7s3.14-7 7-7c3.86 0 7 3.14 7 7s-3.14 7-7 7z"></path>
<path fill="#818181" style="fill: var(--color5, #818181)" d="M7.5 1.5c-0.138 0-0.25 0.112-0.25 0.25v5.75h-3.75c-0.138 0-0.25 0.112-0.25 0.25s0.112 0.25 0.25 0.25h4c0.138 0 0.25-0.112 0.25-0.25v-6c0-0.138-0.112-0.25-0.25-0.25z"></path>
</symbol>
<symbol id="icon-a-icon-typography" viewBox="0 0 15 15">
<path fill="#4d4949" style="fill: var(--color3, #4d4949)" d="M8.565 11.464v-6.587h1.844l0.655 0.437c0.145 0.097 0.345-0.011 0.345-0.185v-2.371c0-0.123-0.099-0.222-0.222-0.222h-7.584c-0.123 0-0.222 0.099-0.222 0.222v2.371c0 0.174 0.2 0.282 0.345 0.185l0.655-0.437h1.844v0.726c0 0.123 0.1 0.222 0.222 0.222s0.222-0.099 0.222-0.222v-0.949c0-0.123-0.1-0.222-0.222-0.222h-2.133c-0.044 0-0.087 0.013-0.123 0.037l-0.366 0.244v-1.733h7.139v1.733l-0.366-0.244c-0.036-0.024-0.079-0.037-0.123-0.037h-2.133c-0.123 0-0.222 0.099-0.222 0.222v6.877c0 0.044 0.013 0.087 0.037 0.123l0.244 0.366h-2.014l0.244-0.366c0.024-0.037 0.037-0.079 0.037-0.123v-4.861c0-0.123-0.099-0.222-0.222-0.222s-0.222 0.099-0.222 0.222v4.794l-0.437 0.655c-0.097 0.145 0.011 0.346 0.185 0.346h2.844c0.174 0 0.282-0.2 0.185-0.346l-0.437-0.655z"></path>
<path fill="#4d4949" style="fill: var(--color3, #4d4949)" d="M12.269 2.958h0.181c0.125 0 0.226-0.095 0.226-0.211s-0.101-0.211-0.226-0.211h-0.181c-0.125 0-0.226 0.095-0.226 0.211s0.101 0.211 0.226 0.211z"></path>
<path fill="#4d4949" style="fill: var(--color3, #4d4949)" d="M13.333 2.958h0.376c0.13 0 0.235-0.095 0.235-0.211s-0.105-0.211-0.235-0.211h-0.376c-0.13 0-0.235 0.095-0.235 0.211s0.105 0.211 0.235 0.211z"></path>
<path fill="#4d4949" style="fill: var(--color3, #4d4949)" d="M14.593 2.958h0.181c0.125 0 0.226-0.095 0.226-0.211s-0.101-0.211-0.226-0.211h-0.181c-0.125 0-0.226 0.095-0.226 0.211s0.101 0.211 0.226 0.211z"></path>
<path fill="#4d4949" style="fill: var(--color3, #4d4949)" d="M12.269 5.282h0.181c0.125 0 0.226-0.095 0.226-0.211s-0.101-0.211-0.226-0.211h-0.181c-0.125 0-0.226 0.095-0.226 0.211s0.101 0.211 0.226 0.211z"></path>
<path fill="#4d4949" style="fill: var(--color3, #4d4949)" d="M13.333 5.282h0.376c0.13 0 0.235-0.095 0.235-0.211s-0.105-0.211-0.235-0.211h-0.376c-0.13 0-0.235 0.095-0.235 0.211s0.105 0.211 0.235 0.211z"></path>
<path fill="#4d4949" style="fill: var(--color3, #4d4949)" d="M14.774 4.859h-0.181c-0.125 0-0.226 0.095-0.226 0.211s0.101 0.211 0.226 0.211h0.181c0.125 0 0.226-0.095 0.226-0.211s-0.101-0.211-0.226-0.211z"></path>
<path fill="#4d4949" style="fill: var(--color3, #4d4949)" d="M0.226 2.958h0.181c0.125 0 0.226-0.095 0.226-0.211s-0.101-0.211-0.226-0.211h-0.181c-0.125 0-0.226 0.095-0.226 0.211s0.101 0.211 0.226 0.211z"></path>
<path fill="#4d4949" style="fill: var(--color3, #4d4949)" d="M1.291 2.958h0.376c0.13 0 0.235-0.095 0.235-0.211s-0.105-0.211-0.235-0.211h-0.376c-0.13 0-0.235 0.095-0.235 0.211s0.105 0.211 0.235 0.211z"></path>
<path fill="#4d4949" style="fill: var(--color3, #4d4949)" d="M2.55 2.958h0.181c0.125 0 0.226-0.095 0.226-0.211s-0.101-0.211-0.226-0.211h-0.181c-0.125 0-0.226 0.095-0.226 0.211s0.101 0.211 0.226 0.211z"></path>
<path fill="#4d4949" style="fill: var(--color3, #4d4949)" d="M0.634 5.070c0-0.117-0.101-0.211-0.226-0.211h-0.181c-0.125 0-0.226 0.095-0.226 0.211s0.101 0.211 0.226 0.211h0.181c0.125 0 0.226-0.095 0.226-0.211z"></path>
<path fill="#4d4949" style="fill: var(--color3, #4d4949)" d="M1.291 5.282h0.376c0.13 0 0.235-0.095 0.235-0.211s-0.105-0.211-0.235-0.211h-0.376c-0.13 0-0.235 0.095-0.235 0.211s0.105 0.211 0.235 0.211z"></path>
<path fill="#4d4949" style="fill: var(--color3, #4d4949)" d="M2.55 5.282h0.181c0.125 0 0.226-0.095 0.226-0.211s-0.101-0.211-0.226-0.211h-0.181c-0.125 0-0.226 0.095-0.226 0.211s0.101 0.211 0.226 0.211z"></path>
<path fill="#4d4949" style="fill: var(--color3, #4d4949)" d="M11.197 0.845c0.117 0 0.211-0.105 0.211-0.235v-0.376c0-0.13-0.095-0.235-0.211-0.235s-0.211 0.105-0.211 0.235v0.376c0 0.13 0.095 0.235 0.211 0.235z"></path>
<path fill="#4d4949" style="fill: var(--color3, #4d4949)" d="M11.197 2.113c0.117 0 0.211-0.105 0.211-0.235v-0.376c0-0.13-0.095-0.235-0.211-0.235s-0.211 0.105-0.211 0.235v0.376c0 0.13 0.095 0.235 0.211 0.235z"></path>
<path fill="#4d4949" style="fill: var(--color3, #4d4949)" d="M3.803 2.113c0.117 0 0.211-0.105 0.211-0.235v-0.376c0-0.13-0.095-0.235-0.211-0.235s-0.211 0.105-0.211 0.235v0.376c0 0.13 0.095 0.235 0.211 0.235z"></path>
<path fill="#4d4949" style="fill: var(--color3, #4d4949)" d="M3.803 0.845c0.117 0 0.211-0.105 0.211-0.235v-0.376c0-0.13-0.095-0.235-0.211-0.235s-0.211 0.105-0.211 0.235v0.376c0 0.13 0.095 0.235 0.211 0.235z"></path>
<path fill="#4d4949" style="fill: var(--color3, #4d4949)" d="M8.451 12.887c-0.117 0-0.211 0.105-0.211 0.235v0.376c0 0.13 0.095 0.235 0.211 0.235s0.211-0.105 0.211-0.235v-0.376c0-0.13-0.095-0.235-0.211-0.235z"></path>
<path fill="#4d4949" style="fill: var(--color3, #4d4949)" d="M8.451 14.155c-0.117 0-0.211 0.105-0.211 0.235v0.376c0 0.13 0.095 0.235 0.211 0.235s0.211-0.105 0.211-0.235v-0.376c0-0.13-0.095-0.235-0.211-0.235z"></path>
<path fill="#4d4949" style="fill: var(--color3, #4d4949)" d="M6.549 12.887c-0.117 0-0.211 0.105-0.211 0.235v0.376c0 0.13 0.095 0.235 0.211 0.235s0.211-0.105 0.211-0.235v-0.376c0-0.13-0.095-0.235-0.211-0.235z"></path>
<path fill="#4d4949" style="fill: var(--color3, #4d4949)" d="M6.549 14.155c-0.117 0-0.211 0.105-0.211 0.235v0.376c0 0.13 0.095 0.235 0.211 0.235s0.211-0.105 0.211-0.235v-0.376c0-0.13-0.095-0.235-0.211-0.235z"></path>
<path fill="#4d4949" style="fill: var(--color3, #4d4949)" d="M4.487 9.459c-0.041-0.041-0.096-0.064-0.153-0.064h-1.186c-0.104-0.654-0.672-1.156-1.354-1.156-0.756 0-1.371 0.616-1.371 1.373s0.615 1.373 1.371 1.373c0.682 0 1.25-0.502 1.354-1.156h1.097l1.091 1.093c0.088 0.088 0.237 0.082 0.318-0.013 0.073-0.085 0.067-0.215-0.011-0.294l-1.155-1.156zM1.794 10.552c-0.517 0-0.938-0.421-0.938-0.94s0.421-0.94 0.938-0.94c0.517 0 0.938 0.421 0.938 0.94s-0.421 0.94-0.938 0.94z"></path>
<path fill="#4d4949" style="fill: var(--color3, #4d4949)" d="M13.206 6.239c-0.682 0-1.25 0.52-1.354 1.198h-1.059l-1.093-2.041c-0.057-0.107-0.191-0.147-0.294-0.087s-0.141 0.198-0.084 0.305l1.155 2.156c0.038 0.071 0.111 0.116 0.189 0.116h1.186c0.104 0.678 0.671 1.198 1.354 1.198 0.756 0 1.371-0.638 1.371-1.423s-0.615-1.423-1.371-1.423zM13.206 8.635c-0.517 0-0.938-0.437-0.938-0.973s0.421-0.973 0.938-0.973c0.517 0 0.938 0.437 0.938 0.973s-0.421 0.973-0.938 0.973z"></path>
<path fill="#4d4949" style="fill: var(--color3, #4d4949)" d="M4.48 1.027c-0.065 0.088-0.057 0.218 0.021 0.296l0.71 0.725c0.090 0.092 0.243 0.086 0.326-0.013 0.074-0.089 0.069-0.225-0.012-0.307l-0.331-0.338h4.612l-0.331 0.338c-0.081 0.083-0.086 0.219-0.012 0.307 0.083 0.099 0.235 0.105 0.326 0.013l0.71-0.725c0.087-0.088 0.087-0.232 0-0.32l-0.71-0.725c-0.087-0.088-0.227-0.088-0.314 0s-0.087 0.232 0 0.32l0.331 0.338h-4.612l0.331-0.338c0.087-0.088 0.087-0.232 0-0.32s-0.227-0.088-0.314 0l-0.71 0.725c-0.008 0.008-0.014 0.016-0.021 0.025z"></path>
</symbol>
<symbol id="icon-Star-1" viewBox="0 0 15 15">
<path fill="#deee23" style="fill: var(--color1, #deee23)" d="M7.5 11.786l-4.408 2.318 0.842-4.909-3.566-3.476 4.929-0.716 2.204-4.466 2.204 4.466 4.929 0.716-3.566 3.476 0.842 4.909z"></path>
</symbol>
<symbol id="icon-Star-2" viewBox="0 0 15 15">
<path fill="#d8d8d8" style="fill: var(--color2, #d8d8d8)" d="M7.5 11.786l-4.408 2.318 0.842-4.909-3.566-3.476 4.929-0.716 2.204-4.466 2.204 4.466 4.929 0.716-3.566 3.476 0.842 4.909z"></path>
</symbol>
</defs>
</svg>
