<!-- Generated by IcoMoon.io -->
<svg version="1.1" xmlns="http://www.w3.org/2000/svg" width="40" height="40" viewBox="0 0 15 15">
<title>a-icon-text</title>
<path fill="#d8d8d8" d="M10.907 0.1l-0.003-0.003c-0.061-0.063-0.144-0.098-0.231-0.097h-4.571c-0.887 0-1.607 0.721-1.607 1.611v0.673h-2.138c-0.887 0-1.607 0.721-1.607 1.611v9.494c0 0.89 0.72 1.61 1.607 1.611h6.541c0.887-0 1.607-0.721 1.607-1.611v-0.673h2.138c0.887-0 1.607-0.721 1.607-1.611v-7.526c-0.001-0.085-0.034-0.167-0.093-0.229l-3.25-3.251zM10.994 1.099l2.163 2.165h-1.199c-0.532-0.002-0.963-0.433-0.964-0.967v-1.198zM8.898 14.356h-6.541c-0.532-0.002-0.963-0.433-0.964-0.967v-9.494c0.002-0.533 0.432-0.965 0.964-0.967h2.346c0.073 0.026 0.152 0.026 0.225 0h1.681v1.653c0 0.89 0.72 1.611 1.607 1.611h1.649v7.197c-0.003 0.534-0.435 0.965-0.967 0.967zM9.416 5.548h-1.199c-0.532-0.002-0.963-0.433-0.964-0.967v-1.198l2.163 2.165zM12.643 12.071h-2.138v-6.208c-0.001-0.085-0.034-0.167-0.093-0.229l-3.25-3.254c-0.061-0.063-0.144-0.098-0.231-0.097h-1.794v-0.673c0.002-0.533 0.432-0.965 0.964-0.967h4.253v1.653c0 0.89 0.72 1.61 1.607 1.611h1.646v7.197c-0.002 0.533-0.432 0.965-0.964 0.966v0z"></path>
<path fill="#d8d8d8" d="M2.689 8.14h3.276c0.179 0 0.323-0.156 0.323-0.349s-0.145-0.349-0.323-0.349h-3.276c-0.179 0-0.323 0.156-0.323 0.349s0.145 0.349 0.323 0.349z"></path>
<path fill="#d8d8d8" d="M8.508 9.767h-5.823c-0.176 0-0.319 0.156-0.319 0.349s0.143 0.349 0.319 0.349h5.823c0.176 0 0.319-0.156 0.319-0.349s-0.143-0.349-0.319-0.349z"></path>
<path fill="#d8d8d8" d="M8.508 12.093h-5.823c-0.176 0-0.319 0.156-0.319 0.349s0.143 0.349 0.319 0.349h5.823c0.176 0 0.319-0.156 0.319-0.349s-0.143-0.349-0.319-0.349z"></path>
<path fill="#d8d8d8" d="M12.315 7.442h-0.976c-0.177 0-0.32 0.156-0.32 0.349s0.143 0.349 0.32 0.349h0.976c0.177 0 0.32-0.156 0.32-0.349s-0.143-0.349-0.32-0.349v0z"></path>
<path fill="#d8d8d8" d="M12.315 9.767h-0.976c-0.177 0-0.32 0.156-0.32 0.349s0.143 0.349 0.32 0.349h0.976c0.177 0 0.32-0.156 0.32-0.349s-0.143-0.349-0.32-0.349v0z"></path>
</svg>
