<!-- Generated by IcoMoon.io -->
<svg version="1.1" xmlns="http://www.w3.org/2000/svg" width="15" height="15" viewBox="0 0 15 15">
<title>a-icon-search-1</title>
<path fill="#fff" d="M11.008 9.682c0.738-1.008 1.18-2.246 1.18-3.588 0-3.36-2.734-6.094-6.094-6.094s-6.094 2.734-6.094 6.094c0 3.36 2.734 6.094 6.094 6.094 1.342 0 2.58-0.442 3.588-1.18l3.992 3.992 1.326-1.326c0-0-3.992-3.992-3.992-3.992v0zM6.094 10.313c-2.326 0-4.219-1.892-4.219-4.219s1.892-4.219 4.219-4.219c2.326 0 4.219 1.892 4.219 4.219s-1.892 4.219-4.219 4.219z"></path>
<path fill="none" stroke="#fff" stroke-linejoin="miter" stroke-linecap="square" stroke-miterlimit="4" stroke-width="0.4412" d="M6.176 3.529v5.294"></path>
<path fill="none" stroke="#fff" stroke-linejoin="miter" stroke-linecap="square" stroke-miterlimit="4" stroke-width="0.4412" d="M8.824 6.176h-5.294"></path>
</svg>
